<svg width="446" height="125" viewBox="0 0 446 125" fill="none" xmlns="http://www.w3.org/2000/svg">
<path d="M84.2 37.5C87.2 37.5 89.7 37.4 91.7 37.2V39.2C87.9667 40.0667 85.3333 42.9667 83.8 47.9L64.9 108.5H64.1H63.3L45.9 57L30 108.5H29.2H28.4L7.2 45.6C5.8 41.4667 3.5 39.3333 0.3 39.2V37.2C3.03333 37.4 6.6 37.5 11 37.5C15.8 37.5 19.4 37.4 21.8 37.2V39.2C20 39.3333 18.7333 39.6667 18 40.2C17.2667 40.7333 16.9 41.5667 16.9 42.7C16.9 43.7667 17.2667 45.4 18 47.6L32.6 92.2L44.8 53.5L42.1 45.6C40.7667 41.4667 38.8 39.3333 36.2 39.2V37.2C38.6 37.4 41.8333 37.5 45.9 37.5C51.6333 37.5 55.9 37.4 58.7 37.2V39.2C56.1667 39.3333 54.4 39.6333 53.4 40.1C52.4 40.5 51.9 41.4 51.9 42.8C51.9 44 52.2333 45.6 52.9 47.6L67.3 92.1L79.6 53.4C80.6667 50.1333 81.2 47.4333 81.2 45.3C81.2 43.1 80.5333 41.5667 79.2 40.7C77.8667 39.7667 75.7 39.2667 72.7 39.2V37.2C76.5 37.4 80.3333 37.5 84.2 37.5Z" fill="#4285F4"/>
<path d="M111.3 31.5C113.033 31.5 114.533 32.1333 115.8 33.4C117.067 34.6667 117.7 36.1667 117.7 37.9C117.7 39.6333 117.067 41.1333 115.8 42.4C114.533 43.6667 113.033 44.3 111.3 44.3C109.567 44.3 108.067 43.6667 106.8 42.4C105.533 41.1333 104.9 39.6333 104.9 37.9C104.9 36.1667 105.533 34.6667 106.8 33.4C108.067 32.1333 109.567 31.5 111.3 31.5ZM116.5 98.7C116.5 101.433 117.067 103.333 118.2 104.4C119.333 105.4 121.3 105.9 124.1 105.9V108C117.967 107.733 113.933 107.6 112 107.6C110.067 107.6 106.033 107.733 99.9 108V105.9C102.7 105.9 104.667 105.4 105.8 104.4C106.933 103.333 107.5 101.433 107.5 98.7V67.4C107.5 64.3333 106.933 62.1 105.8 60.7C104.667 59.3 102.7 58.6 99.9 58.6V56.5C102.033 56.7 104.1 56.8 106.1 56.8C110.3 56.8 113.767 56.3333 116.5 55.4V98.7Z" fill="#EA4335"/>
<path d="M332.3 31.5C334.033 31.5 335.533 32.1333 336.8 33.4C338.067 34.6667 338.7 36.1667 338.7 37.9C338.7 39.6333 338.067 41.1333 336.8 42.4C335.533 43.6667 334.033 44.3 332.3 44.3C330.567 44.3 329.067 43.6667 327.8 42.4C326.533 41.1333 325.9 39.6333 325.9 37.9C325.9 36.1667 326.533 34.6667 327.8 33.4C329.067 32.1333 330.567 31.5 332.3 31.5ZM337.5 98.7C337.5 101.433 338.067 103.333 339.2 104.4C340.333 105.4 342.3 105.9 345.1 105.9V108C338.967 107.733 334.933 107.6 333 107.6C331.067 107.6 327.033 107.733 320.9 108V105.9C323.7 105.9 325.667 105.4 326.8 104.4C327.933 103.333 328.5 101.433 328.5 98.7V67.4C328.5 64.3333 327.933 62.1 326.8 60.7C325.667 59.3 323.7 58.6 320.9 58.6V56.5C323.033 56.7 325.1 56.8 327.1 56.8C331.3 56.8 334.767 56.3333 337.5 55.4V98.7Z" fill="#EA4335"/>
<path d="M425 56.6H439.8V58.6H425V97.3C425 100.3 425.533 102.467 426.6 103.8C427.733 105.133 429.333 105.8 431.4 105.8C433.467 105.8 435.233 104.967 436.7 103.3C438.167 101.633 439.4 98.9 440.4 95.1L442.4 95.6C440.733 104.8 436.4 109.4 429.4 109.4C427.133 109.4 425.267 109.133 423.8 108.6C422.333 108.067 421.033 107.233 419.9 106.1C418.433 104.633 417.4 102.833 416.8 100.7C416.267 98.5667 416 95.7 416 92.1V58.6H406.4V56.6H416V41.3C419.733 41.1667 422.733 40.7 425 39.9V56.6Z" fill="#FBBC05"/>
<path d="M154.8 55.1C157.2 55.1 159.333 55.4667 161.2 56.2C163.067 56.9333 164.567 57.8 165.7 58.8C166.433 59.3333 167.033 59.6 167.5 59.6C168.7 59.6 169.433 58.1333 169.7 55.2H172C171.733 58.4667 171.6 64.1333 171.6 72.2H169.3C168.567 67.8 167.133 64.1667 165 61.3C162.933 58.4333 159.833 57 155.7 57C153.3 57 151.333 57.7 149.8 59.1C148.267 60.4333 147.5 62.3 147.5 64.7C147.5 67.0333 148.3 69 149.9 70.6C151.5 72.1333 154.067 74 157.6 76.2C158.2 76.5333 159.1 77.1 160.3 77.9C163.367 79.9 165.833 81.6667 167.7 83.2C169.567 84.7333 171.067 86.5 172.2 88.5C173.4 90.5 174 92.8 174 95.4C174 99.8 172.333 103.233 169 105.7C165.733 108.167 161.7 109.4 156.9 109.4C153.9 109.4 151.267 108.933 149 108C147.533 107.267 146.167 106.367 144.9 105.3C144.633 105.033 144.333 104.9 144 104.9C143.533 104.9 143.1 105.233 142.7 105.9C142.367 106.567 142.1 107.5 141.9 108.7H139.6C139.867 104.9 140 98.2333 140 88.7H142.3C143.033 94.9667 144.367 99.6667 146.3 102.8C148.233 105.867 151.533 107.4 156.2 107.4C158.533 107.4 160.6 106.633 162.4 105.1C164.2 103.567 165.1 101.167 165.1 97.9C165.1 95.3 164.2 93.1 162.4 91.3C160.667 89.5 157.8 87.3333 153.8 84.8C150.533 82.7333 148 81.0333 146.2 79.7C144.467 78.3667 143 76.7333 141.8 74.8C140.6 72.8667 140 70.6 140 68C140 63.8 141.4 60.6 144.2 58.4C147 56.2 150.533 55.1 154.8 55.1Z" fill="#FBBC05"/>
<path d="M203.6 67.1C205.267 62.9 207.567 59.8667 210.5 58C213.5 56.0667 216.867 55.1 220.6 55.1C225.267 55.1 228.8 56.3667 231.2 58.9C232.467 60.2333 233.367 61.9 233.9 63.9C234.433 65.9 234.7 68.6 234.7 72V98.7C234.7 101.433 235.267 103.333 236.4 104.4C237.533 105.4 239.5 105.9 242.3 105.9V108C236.167 107.733 232.167 107.6 230.3 107.6C228.433 107.6 224.7 107.733 219.1 108V105.9C221.567 105.9 223.267 105.4 224.2 104.4C225.2 103.333 225.7 101.433 225.7 98.7V69.8C225.7 66.0667 225.167 63.2333 224.1 61.3C223.033 59.3 220.867 58.3 217.6 58.3C214.867 58.3 212.433 59.0667 210.3 60.6C208.233 62.1333 206.6 64.3 205.4 67.1C204.2 69.8333 203.6 72.9333 203.6 76.4V98.7C203.6 101.433 204.067 103.333 205 104.4C206 105.4 207.733 105.9 210.2 105.9V108C204.6 107.733 200.867 107.6 199 107.6C197.133 107.6 193.133 107.733 187 108V105.9C189.8 105.9 191.767 105.4 192.9 104.4C194.033 103.333 194.6 101.433 194.6 98.7V41.7C194.6 38.6333 194.033 36.4 192.9 35C191.767 33.6 189.8 32.9 187 32.9V30.8C189.133 31 191.2 31.1 193.2 31.1C197.4 31.1 200.867 30.6333 203.6 29.7V67.1Z" fill="#4285F4"/>
<path d="M279.7 39.2C277.3 39.3333 275.533 39.6 274.4 40C273.333 40.4 272.6 41.1667 272.2 42.3C271.8 43.4333 271.6 45.2667 271.6 47.8V97.4C271.6 99.9333 271.8 101.767 272.2 102.9C272.6 104.033 273.333 104.8 274.4 105.2C275.533 105.533 277.3 105.7 279.7 105.7H287C291.133 105.7 294.267 105.133 296.4 104C298.6 102.8 300.2 100.9 301.2 98.3C302.2 95.7 302.933 91.9333 303.4 87H305.7C305.5 89.0667 305.4 91.8 305.4 95.2C305.4 99 305.633 103.267 306.1 108C301.567 107.8 293.933 107.7 283.2 107.7C270.4 107.7 260.733 107.8 254.2 108V106C256.6 105.867 258.333 105.6 259.4 105.2C260.533 104.8 261.3 104.033 261.7 102.9C262.1 101.767 262.3 99.9333 262.3 97.4V47.8C262.3 45.2667 262.1 43.4333 261.7 42.3C261.3 41.1667 260.533 40.4 259.4 40C258.333 39.6 256.6 39.3333 254.2 39.2V37.2C257 37.4 261.267 37.5 267 37.5C272.333 37.5 276.567 37.4 279.7 37.2V39.2Z" fill="#34A853"/>
<path d="M375.8 55.1C378.2 55.1 380.333 55.4667 382.2 56.2C384.067 56.9333 385.567 57.8 386.7 58.8C387.433 59.3333 388.033 59.6 388.5 59.6C389.7 59.6 390.433 58.1333 390.7 55.2H393C392.733 58.4667 392.6 64.1333 392.6 72.2H390.3C389.567 67.8 388.133 64.1667 386 61.3C383.933 58.4333 380.833 57 376.7 57C374.3 57 372.333 57.7 370.8 59.1C369.267 60.4333 368.5 62.3 368.5 64.7C368.5 67.0333 369.3 69 370.9 70.6C372.5 72.1333 375.067 74 378.6 76.2C379.2 76.5333 380.1 77.1 381.3 77.9C384.367 79.9 386.833 81.6667 388.7 83.2C390.567 84.7333 392.067 86.5 393.2 88.5C394.4 90.5 395 92.8 395 95.4C395 99.8 393.333 103.233 390 105.7C386.733 108.167 382.7 109.4 377.9 109.4C374.9 109.4 372.267 108.933 370 108C368.533 107.267 367.167 106.367 365.9 105.3C365.633 105.033 365.333 104.9 365 104.9C364.533 104.9 364.1 105.233 363.7 105.9C363.367 106.567 363.1 107.5 362.9 108.7H360.6C360.867 104.9 361 98.2333 361 88.7H363.3C364.033 94.9667 365.367 99.6667 367.3 102.8C369.233 105.867 372.533 107.4 377.2 107.4C379.533 107.4 381.6 106.633 383.4 105.1C385.2 103.567 386.1 101.167 386.1 97.9C386.1 95.3 385.2 93.1 383.4 91.3C381.667 89.5 378.8 87.3333 374.8 84.8C371.533 82.7333 369 81.0333 367.2 79.7C365.467 78.3667 364 76.7333 362.8 74.8C361.6 72.8667 361 70.6 361 68C361 63.8 362.4 60.6 365.2 58.4C368 56.2 371.533 55.1 375.8 55.1Z" fill="#4285F4"/>
</svg>
