<?xml version="1.0" encoding="utf-8"?>
<!-- Generator: Adobe Illustrator 24.0.1, SVG Export Plug-In . SVG Version: 6.00 Build 0)  -->
<svg version="1.1" id="Layer_1" xmlns="http://www.w3.org/2000/svg" xmlns:xlink="http://www.w3.org/1999/xlink" x="0px" y="0px"
	 viewBox="0 0 24.8 21.4" style="enable-background:new 0 0 24.8 21.4;" xml:space="preserve">
<style type="text/css">
	.st0{clip-path:url(#SVGID_2_);}
	.st1{fill:#4285F4;}
</style>
<g>
	<defs>
		<rect id="SVGID_1_" x="-5.1" y="-1.8" transform="matrix(0.7071 -0.7071 0.7071 0.7071 -5.4164 8.3691)" width="25" height="25"/>
	</defs>
	<clipPath id="SVGID_2_">
		<use xlink:href="#SVGID_1_"  style="overflow:visible;"/>
	</clipPath>
	<g class="st0">
		<path class="st1" d="M24.8,10.7c0-0.3-0.2-0.6-0.4-0.7L1,0.1C0.8,0,0.5,0,0.2,0.2C0,0.4,0,0.7,0,1l3.4,9.7L0,20.5
			C0,20.7,0,21,0.2,21.2c0,0,0,0,0,0c0.2,0.2,0.5,0.3,0.8,0.1l23.3-10C24.6,11.3,24.8,11,24.8,10.7z"/>
		<path class="st1" d="M24.8,10.7l-21.3,0L0,20.5C0,20.7,0,21,0.2,21.2c0,0,0,0,0,0c0.2,0.2,0.5,0.3,0.8,0.1l23.3-10
			C24.6,11.3,24.8,11,24.8,10.7z"/>
	</g>
</g>
</svg>
